<svg xmlns="http://www.w3.org/2000/svg" viewBox="0 0 26.02 26.02"><defs><style>.cls-1,.cls-3{fill:#c40000;}.cls-2{fill:#fff;}.cls-3,.cls-4{stroke:#fff;stroke-miterlimit:10;stroke-width:0.7px;}.cls-4{fill:none;}</style></defs><title>Asset 1</title><g id="Layer_2" data-name="Layer 2"><g id="Layer_1-2" data-name="Layer 1"><path class="cls-1" d="M13,25.67A12.66,12.66,0,1,1,25.67,13,12.68,12.68,0,0,1,13,25.67Z"/><path class="cls-2" d="M13,.7A12.31,12.31,0,1,1,.7,13,12.31,12.31,0,0,1,13,.7M13,0A13,13,0,1,0,26,13,13,13,0,0,0,13,0Z"/><path class="cls-2" d="M13,16.85c-5.06,0-9.32-2.4-10.59-4.06,0,.07,0,.14,0,.22a10.6,10.6,0,0,0,21.2,0c0-.08,0-.15,0-.22C22.32,14.45,18.07,16.85,13,16.85Z"/><path d="M2.76,13.52c0-.08,0-.16,0-.24,0-.42,0-.82,0-1.23C5,11.75,10.79,11,13,11s8.06.77,10.22,1.07c0,.41,0,.81,0,1.23v.24Z"/><path class="cls-2" d="M13,11.33c2.11,0,7.54.71,9.88,1,0,.28,0,.55,0,.81H3.1c0-.26,0-.53,0-.81,2.35-.32,7.78-1,9.89-1m0-.69c-2.34,0-8.56.83-10.56,1.1,0,.51,0,1,0,1.54,0,.2,0,.39,0,.58H23.59c0-.19,0-.38,0-.58,0-.52,0-1-.05-1.54-2-.27-8.21-1.1-10.55-1.1Z"/><path class="cls-3" d="M14,.36H12s-.81,8.4-.81,12.51.07,5.7.07,5.7h3.44s.07-1.59.07-5.7S14,.36,14,.36Z"/><path class="cls-4" d="M2.53,13.59A9.14,9.14,0,0,0,7,21.33a10.23,10.23,0,0,0,4.31-8.47A11,11,0,0,0,8,4.91,9.8,9.8,0,0,0,2.53,13.59Z"/><path class="cls-4" d="M14.71,12.86A10.23,10.23,0,0,0,19,21.33a9.13,9.13,0,0,0,4.45-7.74A9.8,9.8,0,0,0,18,4.91,11,11,0,0,0,14.71,12.86Z"/></g></g></svg>