<svg xmlns="http://www.w3.org/2000/svg" viewBox="0 0 102.86 78.41"><defs><style>.cls-1{fill:#c40000;}</style></defs><title>Asset 2</title><g id="Layer_2" data-name="Layer 2"><g id="Layer_3" data-name="Layer 3"><path class="cls-1" d="M49.39.54l-.88,10.94c-.17-.53-.32-1.06-.51-1.57a14.12,14.12,0,0,0-2.65-4.66,1.46,1.46,0,0,0-1.77-.5,22.08,22.08,0,0,0-8.46,5.09,23.81,23.81,0,0,0-4.64,7.41,8.48,8.48,0,0,0-.43,1.95,2.55,2.55,0,0,0,.51,2.08,2.38,2.38,0,0,0-.51,2.42,25.62,25.62,0,0,0,3.22,8.38,17.63,17.63,0,0,0,3.92,4.12,22.4,22.4,0,0,0,8.48,4.59,52.37,52.37,0,0,0,5.79,1.13,13.06,13.06,0,0,0,7.12-1.17,28.48,28.48,0,0,0,8.07-5,16.2,16.2,0,0,0,3.11-3.93,22.26,22.26,0,0,0,2.81-7.73,3.64,3.64,0,0,0-.32-2.44.51.51,0,0,1,0-.43c.27-.42.58-.81.86-1.22a1.48,1.48,0,0,0,.14-1.59c-.59-1.19-1.15-2.4-1.83-3.54-.92-1.54-1.91-3.05-2.92-4.53a11.31,11.31,0,0,0-3.39-3.07,21.58,21.58,0,0,0-5.89-2.61,1.14,1.14,0,0,0-1.52.56A13.43,13.43,0,0,0,56.84,7a29,29,0,0,0-2,5.89.61.61,0,0,1-.07.17L53.87.62c.93.15,1.89.27,2.84.44a26.21,26.21,0,0,1,6.76,2.13A21.9,21.9,0,0,1,67.73,6.3a5,5,0,0,1,.4.58c.32.38.64.74,1,1.11.7.78,1.45,1.52,2.1,2.34a10.58,10.58,0,0,1,.66,1.4,18.56,18.56,0,0,1,2.29,8.35c.07,1.88,0,3.77-.08,5.66a10,10,0,0,1-.38,1.67A12.08,12.08,0,0,1,71,32.82c-1.1,1.24-2.07,2.6-3.18,3.82a11.26,11.26,0,0,1-2,1.58,31,31,0,0,1-3.12,2,27.67,27.67,0,0,1-3.08,1.27,4.88,4.88,0,0,1-2.27.37,1.3,1.3,0,0,0-1.38.89c-.14.32-.27.65-.43,1a.54.54,0,0,1-.61.35,8.72,8.72,0,0,0-1.84.06,28.56,28.56,0,0,1-5.47,0,.77.77,0,0,1-.49-.37c-.37-.64-.71-1.3-1-2a1.09,1.09,0,0,0-1-.59,18.57,18.57,0,0,1-3.07-.63,13.39,13.39,0,0,1-2.58-1.26,23.13,23.13,0,0,1-2.89-2,36.35,36.35,0,0,1-2.88-2.81A10.51,10.51,0,0,1,32.54,33c-.13-.21-.08-.52-.17-.77a10.82,10.82,0,0,0-.5-1.17c-.34-.64-.75-1.25-1.06-1.91-.45-.95-.76-2-1.27-2.88a8.57,8.57,0,0,1-.85-3.8,17.32,17.32,0,0,1,.23-2.86c.14-1.17.32-2.33.49-3.49a3.18,3.18,0,0,1,.14-.53A23.88,23.88,0,0,1,33.27,9C34,8,34.7,6.9,35.48,5.9a4.9,4.9,0,0,1,1.26-1,18.65,18.65,0,0,1,2.47-1.37c1.18-.51,2.41-.92,3.63-1.36.35-.13.71-.23,1.06-.33C45.35,1.41,46.79,1,48.24.64A6,6,0,0,1,49.39.54Z"/><path d="M48.66,29.84c-.55-.07-1-.09-1.47-.19s-.75,0-.75.58c0,1.16,0,2.32,0,3.47,0,1.38,0,2.75.07,4.12a.87.87,0,0,0,.47.9c.08,0,.12.2.16.31.22.62.52.73,1.14.48a.88.88,0,0,1,.64,0,.68.68,0,0,0,.92-.12A1.58,1.58,0,0,0,50.32,38a26.56,26.56,0,0,1-.16-3c0-1.12.07-2.24.12-3.36.7,0,1.26.06,1.83.12.06,0,.16.2.16.31,0,1,0,2.11,0,3.16,0,.78.19,1.56.27,2.34,0,.35,0,.7,0,1s-.07.45-.06.68c0,.06.15.16.23.16a9.82,9.82,0,0,0,1.09-.06,6.29,6.29,0,0,1,1.28-.12,1.75,1.75,0,0,0,2.05-1.92c-.28-1.94-.56-3.89-.92-5.82a16.27,16.27,0,0,0-.73-2.24.28.28,0,0,0-.08-.12c-.62-.4-.32-1-.36-1.59.67,0,1.25-.31,2,0a3,3,0,0,0,1.56,0,30.33,30.33,0,0,0,8.6-2.44,14.46,14.46,0,0,0,3.65-2.46,2.15,2.15,0,0,1,.6-.24c.07.2.23.41.2.6-.12,1-.3,2.08-.45,3.12a14.16,14.16,0,0,1-2,4.7,7.26,7.26,0,0,1-.87,1.57c-1,1.11-2.15,2.13-3.23,3.19-.2.19-.37.41-.58.6a11.24,11.24,0,0,1-1.06.88,20,20,0,0,1-3,1.94,28.64,28.64,0,0,1-5.07,1.74,21.2,21.2,0,0,1-4.3.28,7.67,7.67,0,0,1-2.34-.24,31.75,31.75,0,0,1-4.34-1.49,45.44,45.44,0,0,1-5.14-2.66,14,14,0,0,1-5-5,23.22,23.22,0,0,1-2.45-5.45c-.29-1.09-.42-2.24-.6-3.36a.53.53,0,0,1,.16-.39c.06,0,.27,0,.36.11A19.6,19.6,0,0,0,39.9,26.6q2.52.63,5.09,1a22.36,22.36,0,0,0,2.59,0c.93,0,.93.07,1,1C48.59,29,48.62,29.34,48.66,29.84Zm14,4.86c-.11-.82-.19-1.54-.32-2.26-.18-1.09-.38-2.18-.61-3.26a.88.88,0,0,0-1-.65c-.62.09-1.24.19-1.86.31a2.55,2.55,0,0,0-.87.29.84.84,0,0,0-.4.61A21.79,21.79,0,0,0,58,32c.34,1.84.71,3.67,1,5.51.1.56.44.71.93.36a10.39,10.39,0,0,1,1.08-.8,4.6,4.6,0,0,0,1.46-1.7A1.79,1.79,0,0,0,62.65,34.7Zm-21.54.19c.06.42.16.86.19,1.31a1.36,1.36,0,0,0,1.12,1.34,13.84,13.84,0,0,1,1.62.62.55.55,0,0,0,.77-.21,1.34,1.34,0,0,0,.28-1.08,7.41,7.41,0,0,1-.18-1.24c-.07-1.85-.16-3.7-.15-5.56,0-.92-.35-1.27-1.27-1.06a2.17,2.17,0,0,1-2.07-.25c-.37-.31-.82,0-.83.44,0,.23,0,.47.06.7C40.73,31.56,41.36,33.17,41.11,34.89Zm-1.82,1a1.27,1.27,0,0,0,.42-1.33c-.06-.62-.32-1.23-.36-1.85-.08-1.27-.09-2.56-.1-3.84A.9.9,0,0,0,38.9,28c-.81-.48-1.61-.95-2.43-1.4a.51.51,0,0,0-.47,0,3.5,3.5,0,0,0-.45.72s0,.08.06.11.16.2.16.29c0,.4-.05.8-.07,1.2a4,4,0,0,0,0,.85c.08.46.27.92.32,1.38.09.75.08,1.51.14,2.26a1.6,1.6,0,0,0,.17.46l.09-.16c.19,0,.46-.09.57,0a4.47,4.47,0,0,1,.83.91c.33.53.72.84,1.37.56ZM67,31.6l-.07-.05c0-.17-.06-.34-.11-.5-.17-.64-.38-1.27-.53-1.92s-.32-1.53-.49-2.3c-.08-.35-.24-.7-.68-.58a1.29,1.29,0,0,0-1,.73.84.84,0,0,1-.34.36c-.71.46-.68.47-.55,1.31.27,1.75.49,3.51.73,5.27,0,.25-.05.61.3.63a1.19,1.19,0,0,0,.79-.23,4.55,4.55,0,0,0,1-1C66.43,32.78,66.7,32.18,67,31.6ZM67.47,27l-.15,0c.18.67.36,1.33.53,2,.07.25.11.51.19.76s.16.49.25.5.51-.1.58-.25A9,9,0,0,0,70,27.64c0-.35.22-.67.27-1a3,3,0,0,0-.07-.78,2.49,2.49,0,0,1-.09-.46c.06-.52-.48-1-.94-.77a13.31,13.31,0,0,0-1.63,1.1.6.6,0,0,0-.13.42A8.89,8.89,0,0,0,67.47,27ZM35,27.68h0c0-.19,0-.37,0-.55a2.38,2.38,0,0,0-.72-1.75,8.75,8.75,0,0,0-1.06-.95c-.11-.1-.32-.26-.39-.22a.77.77,0,0,0-.29.43.92.92,0,0,0,.07.45,7.88,7.88,0,0,1,.46,1.53A16.7,16.7,0,0,0,34.21,30a4.81,4.81,0,0,0,.51,1,2,2,0,0,0,.33.32c.06-.16.19-.32.17-.47,0-.36-.18-.72-.2-1.08C35,29.09,35,28.38,35,27.68Z"/><path class="cls-1" d="M59.67,18.27c.35-.17.93-.07.71-.64l-1.52.47c-.18,0-.42.07-.31.39,0,.06-.17.2-.34.37l0-.6c-.85.12-1.68.23-2.52.37-.55.09-.74-.05-.65-.59.2-1.24.33-2.49.65-3.7.49-1.86,1.07-3.7,1.7-5.52.35-1,.87-2,1.3-2.95.13-.29.31-.31.59-.2a24.06,24.06,0,0,1,5.45,2.87,19.48,19.48,0,0,1,3,2.71,15.8,15.8,0,0,1,1.51,2.09,18.55,18.55,0,0,1,1.23,1.85,25.8,25.8,0,0,1,1,2.49c.13.35.22.7.35,1.13C67.79,18.1,63.76,18.37,59.67,18.27Z"/><path class="cls-1" d="M44.07,5.77c.49.79.87,1.52,1.35,2.16a12,12,0,0,1,2.37,6.49c.09,1.23.3,2.45.44,3.67a1.63,1.63,0,0,1,0,.35c-.43-.08-.82-.17-1.22-.21a11,11,0,0,0-1.29-.05l-5.07.19c-.63,0-1.26,0-1.89,0L34,18.47l-1.79,0c-.48,0-.67-.29-.47-.73.29-.64.59-1.28.94-1.9.5-.9,1-1.81,1.58-2.66a22.21,22.21,0,0,1,2.14-2.77,9.14,9.14,0,0,1,1.88-1.24C39.14,8.56,40.05,8,41,7.4a1.47,1.47,0,0,1,.66-.24,1.15,1.15,0,0,0,1.18-.76A.43.43,0,0,1,43,6.18C43.41,6,43.79,5.87,44.07,5.77Z"/><path class="cls-1" d="M52,31.17c-.74-.19-1.48-.37-2.21-.59-.09,0-.19-.2-.19-.31,0-1,0-1.92-.05-2.87-.07-1.63-.19-3.26-.25-4.89-.06-1.46-.11-2.93-.1-4.39,0-1.65.1-3.3.15-5,0-1.27,0-2.54.13-3.8.11-1.77.26-3.54.42-5.31.12-1.25.27-2.49.43-3.73A.45.45,0,0,1,50.58,0c.65,0,1.3,0,2,0a.32.32,0,0,1,.25.2c.16,1,.32,2,.42,3.06s.09,1.82.14,2.73c0,.51.09,1,.12,1.52.08,1.43.16,2.86.22,4.29.1,2.09.18,4.18.28,6.27.08,1.62.17,3.23.24,4.84,0,.83,0,1.66,0,2.49,0,1.35.06,2.7.08,4.05a2.27,2.27,0,0,1-.07.91.93.93,0,0,1-.59.49,15.15,15.15,0,0,1-1.65.19ZM51.38,2.23,52.44.75,51.93.68l-.19.42-.41,0,.06.49-.5,0Z"/><path class="cls-1" d="M55.47,22.15c1-.09,2-.26,2.9-.26,1.67,0,3.34.1,5,.18.88.05,1.75.21,2.62.23,1.1,0,2.2,0,3.29-.07l.47,0a9.46,9.46,0,0,1-3.07,2.07c-2,.6-4.06,1.3-6.1,1.92-1,.28-1.93.45-2.89.67a.46.46,0,0,1-.59-.28,13.3,13.3,0,0,1-1.49-3.39C55.56,22.88,55.53,22.56,55.47,22.15Z"/><path d="M39,19.32a1.58,1.58,0,0,0-.49,1.28c.06.51.41.77.67,1.16-.08,0-.19.13-.23.11-.34-.17-.68,0-1,0-.92,0-1.85-.16-2.77-.25a22.16,22.16,0,0,1-2.45-.31,2.32,2.32,0,0,1-.95-.69,3.6,3.6,0,0,1-.54-.74.54.54,0,0,1-.1-.41c0-.1.22-.17.35-.19.59-.08,1.19-.18,1.78-.2s1,.09,1.57.11Z"/><path d="M64,21.37a1.64,1.64,0,0,0-.12-2.2l8.1.26a6.38,6.38,0,0,1-.38.67,14.61,14.61,0,0,1-.88,1.19.53.53,0,0,1-.4.14c-.29,0-.57-.08-.86-.1-.52,0-1-.08-1.56-.07-1.18,0-2.36.08-3.54.13Z"/><path d="M62.11,19.09c-.71.51-.78,1.33-.22,2.26-.58,0-1.11-.07-1.63-.08-.77,0-1.54,0-2.3,0-.26,0-.51-.11-.77-.12-.43,0-.87,0-1.3,0s-.62-.08-.68-.42-.07-.94-.1-1.47a11.25,11.25,0,0,0,3.53-.05c.77,0,1.54,0,2.3-.07Z"/><path class="cls-1" d="M47.44,26.55l.88-1.81h.07v1.81Z"/><path class="cls-1" d="M55.23,25.59l.5.89-.58,0v-.9Z"/><path class="cls-1" d="M47.75,22.08a.87.87,0,0,1-.52.28c-1.86.08-3.73.18-5.6.17-2.21,0-4.42-.13-6.63-.21-.54,0-1.08-.06-1.77-.1.19.22.26.37.38.43.33.19.71.31,1,.52A12.87,12.87,0,0,0,38.31,25c1.25.33,2.47.81,3.72,1.15a25.12,25.12,0,0,0,2.72.53,1.33,1.33,0,0,0,1.58-.74c.34-.67.75-1.31,1.09-2A8.82,8.82,0,0,0,48.13,22,1.26,1.26,0,0,0,47.75,22.08Z"/><path d="M40.92,21.53a.69.69,0,0,0,.92.21,2.44,2.44,0,0,1,.68-.08c1.12-.15,2.27.32,3.38-.18a.37.37,0,0,1,.22,0,1,1,0,0,0,.84,0c.2-.09.52.06.76.17l.56-.42a5.88,5.88,0,0,0,0-1.51,4.7,4.7,0,0,1,0-.65c0-.12,0-.23,0-.35a2.53,2.53,0,0,1-.65.25c-.76.06-1.53.08-2.3.11L41,19.23c.17.41.35.79.51,1.18C41.59,20.61,41.21,21.34,40.92,21.53Z"/><path d="M.45,51.7H2.68c3,0,4.4,1.88,4.4,4.8S5.67,61.37,2.7,61.37H.45Zm2.17,9.09c2.62,0,3.75-1.77,3.75-4.29s-1.13-4.22-3.75-4.22H1.12v8.51Z"/><path d="M8.64,57.86c0-2.36,1.47-3.71,3.16-3.71S15,55.5,15,57.86s-1.47,3.68-3.17,3.68S8.64,60.19,8.64,57.86Zm5.64,0c0-1.85-1-3.14-2.48-3.14S9.32,56,9.32,57.86,10.38,61,11.8,61,14.28,59.71,14.28,57.86Z"/><path d="M17.08,54.33h.54l.07,1.09h0A3.26,3.26,0,0,1,20,54.15a1.83,1.83,0,0,1,1.95,1.44,3.5,3.5,0,0,1,2.39-1.44c1.4,0,2.1.88,2.1,2.7v4.52h-.65V56.94c0-1.5-.49-2.21-1.57-2.21a3,3,0,0,0-2.11,1.33v5.31h-.65V56.94c0-1.5-.5-2.21-1.58-2.21a3.12,3.12,0,0,0-2.11,1.33v5.31h-.64Z"/><path d="M28.73,52.05a.59.59,0,0,1,1.18,0,.59.59,0,0,1-1.18,0ZM29,54.33h.65v7H29Z"/><path d="M32.33,54.33h.55L33,55.42h0a3.46,3.46,0,0,1,2.43-1.27c1.45,0,2.13.88,2.13,2.7v4.52h-.65V56.94c0-1.5-.47-2.21-1.61-2.21-.83,0-1.44.45-2.3,1.33v5.31h-.65Z"/><path d="M39.88,52.05a.55.55,0,0,1,.58-.57.56.56,0,0,1,.59.57.57.57,0,0,1-.59.57A.56.56,0,0,1,39.88,52.05Zm.25,2.28h.65v7h-.65Z"/><path d="M42.89,57.86c0-2.36,1.5-3.71,3.21-3.71a2.85,2.85,0,0,1,2.06.87l-.38.45a2.41,2.41,0,0,0-1.66-.75c-1.44,0-2.55,1.29-2.55,3.14s1,3.11,2.54,3.11A2.78,2.78,0,0,0,48,60.16l.34.45a3.35,3.35,0,0,1-2.25.93C44.26,61.54,42.89,60.19,42.89,57.86Z"/><path d="M53.06,51.7h.68v9.09h4.45v.58H53.06Z"/><path d="M59.1,57.86c0-2.3,1.49-3.71,3.07-3.71s2.69,1.19,2.69,3.26a3.23,3.23,0,0,1,0,.53H59.76c0,1.77,1.07,3,2.65,3a3.17,3.17,0,0,0,1.89-.62l.27.49a3.82,3.82,0,0,1-2.22.69C60.55,61.54,59.1,60.16,59.1,57.86Zm5.15-.46c0-1.8-.81-2.69-2.08-2.69a2.62,2.62,0,0,0-2.41,2.69Z"/><path d="M66,59.61c0-1.56,1.41-2.3,4.54-2.65,0-1.08-.27-2.24-1.66-2.24a3.83,3.83,0,0,0-2.24.83l-.3-.49A4.76,4.76,0,0,1,69,54.15c1.67,0,2.23,1.21,2.23,2.72v4.5h-.55l-.07-.92h0a4.14,4.14,0,0,1-2.5,1.09A1.84,1.84,0,0,1,66,59.61Zm4.54.24v-2.4c-2.89.34-3.88,1-3.88,2.13A1.33,1.33,0,0,0,68.2,61,3.7,3.7,0,0,0,70.58,59.85Z"/><path d="M73.75,59.42V54.89h-1.1v-.5l1.11-.06.08-2h.56v2h2v.56h-2v4.58c0,.9.22,1.51,1.19,1.51a2.35,2.35,0,0,0,.88-.23l.17.53a4,4,0,0,1-1.15.26C74.14,61.54,73.75,60.68,73.75,59.42Z"/><path d="M78.15,50.82h.65v4.61a3.5,3.5,0,0,1,2.44-1.28c1.45,0,2.13.88,2.13,2.7v4.52h-.65V56.94c0-1.5-.47-2.21-1.61-2.21-.84,0-1.44.45-2.3,1.33v5.31h-.65Z"/><path d="M85.39,59.61c0-1.56,1.41-2.3,4.54-2.65,0-1.08-.27-2.24-1.66-2.24a3.83,3.83,0,0,0-2.24.83l-.3-.49a4.73,4.73,0,0,1,2.62-.91c1.67,0,2.23,1.21,2.23,2.72v4.5H90L90,60.45h0a4.17,4.17,0,0,1-2.5,1.09A1.84,1.84,0,0,1,85.39,59.61Zm4.54.24v-2.4c-2.89.34-3.88,1-3.88,2.13a1.33,1.33,0,0,0,1.5,1.4A3.7,3.7,0,0,0,89.93,59.85Z"/><path d="M93.09,54.33h.55l.07,1.09h0A3.26,3.26,0,0,1,96,54.15a1.82,1.82,0,0,1,1.94,1.44,3.52,3.52,0,0,1,2.39-1.44c1.41,0,2.11.88,2.11,2.7v4.52h-.65V56.94c0-1.5-.5-2.21-1.58-2.21a3.06,3.06,0,0,0-2.11,1.33v5.31h-.64V56.94c0-1.5-.5-2.21-1.58-2.21a3.1,3.1,0,0,0-2.11,1.33v5.31h-.65Z"/><path class="cls-1" d="M3.13,68.65h2l3.13,9.59H6.45L5,73.13c-.31-1-.59-2.11-.87-3.16H4.06c-.27,1.06-.55,2.15-.85,3.16L1.74,78.24H0ZM1.85,74.3H6.36v1.34H1.85Z"/><path class="cls-1" d="M13.39,68.65h1.75l3,5.39,1,2h.06c-.08-1-.22-2.2-.22-3.27V68.65h1.62v9.59H18.82l-3-5.4-1-2h0c.08,1,.21,2.17.21,3.24v4.2H13.39Z"/><path class="cls-1" d="M27.06,68.65h1.7v9.59h-1.7Z"/><path class="cls-1" d="M35.24,68.65h1.93l1.69,4.68c.21.61.41,1.26.62,1.89h.06c.21-.63.39-1.28.6-1.89l1.66-4.68h1.93v9.59H42.17V73.85c0-.89.13-2.16.21-3h-.06L41.55,73,40,77.34H39L37.38,73l-.76-2.23h-.06c.08.89.21,2.16.21,3v4.39H35.24Z"/><path class="cls-1" d="M52.09,68.65h2l3.13,9.59h-1.8L54,73.13c-.31-1-.59-2.11-.87-3.16H53c-.26,1.06-.55,2.15-.85,3.16L50.7,78.24H49ZM50.81,74.3h4.51v1.34H50.81Z"/><path class="cls-1" d="M63.44,70.08H60.67V68.65h7.24v1.43H65.14v8.16h-1.7Z"/><path class="cls-1" d="M73.56,68.65h1.7v9.59h-1.7Z"/><path class="cls-1" d="M81.24,73.4c0-3.1,1.73-4.93,4.23-4.93s4.23,1.84,4.23,4.93-1.73,5-4.23,5S81.24,76.51,81.24,73.4Zm6.71,0C88,71.25,87,70,85.47,70S83,71.25,83,73.4s1,3.53,2.48,3.53S88,75.56,88,73.4Z"/><path class="cls-1" d="M95.68,68.65h1.75l3,5.39,1,2h.06c-.08-1-.22-2.2-.22-3.27V68.65h1.62v9.59h-1.75l-3-5.4-1-2h-.06c.08,1,.22,2.17.22,3.24v4.2H95.68Z"/></g></g></svg>