<svg xmlns="http://www.w3.org/2000/svg" viewBox="0 0 154.6 44.24"><defs><style>.cls-1{fill:#c40000;}</style></defs><title>Asset 3</title><g id="Layer_2" data-name="Layer 2"><g id="Layer_2-2" data-name="Layer 2"><path class="cls-1" d="M20.7.54l-.87,10.94c-.17-.53-.32-1.06-.51-1.57a14.3,14.3,0,0,0-2.65-4.66,1.48,1.48,0,0,0-1.78-.5A22,22,0,0,0,6.44,9.84,23.81,23.81,0,0,0,1.8,17.25a9.05,9.05,0,0,0-.44,1.95,2.62,2.62,0,0,0,.51,2.08,2.39,2.39,0,0,0-.5,2.42,25.6,25.6,0,0,0,3.21,8.38A17.47,17.47,0,0,0,8.51,36.2,22.33,22.33,0,0,0,17,40.79a51.48,51.48,0,0,0,5.79,1.13,13.08,13.08,0,0,0,7.12-1.17,28.48,28.48,0,0,0,8.07-5,16.4,16.4,0,0,0,3.1-3.93,22.08,22.08,0,0,0,2.82-7.73,3.58,3.58,0,0,0-.33-2.44.52.52,0,0,1,.06-.43c.27-.42.58-.81.86-1.22a1.5,1.5,0,0,0,.14-1.59c-.59-1.19-1.15-2.4-1.83-3.54-.92-1.54-1.92-3.05-2.93-4.53a11.08,11.08,0,0,0-3.39-3.07,21.58,21.58,0,0,0-5.89-2.61,1.13,1.13,0,0,0-1.51.56A13.49,13.49,0,0,0,28.15,7a28.32,28.32,0,0,0-2,5.89c0,.06-.05.11-.07.17L25.18.62c.94.15,1.9.27,2.85.44a26,26,0,0,1,6.75,2.13,18.93,18.93,0,0,1,2.63,1.73A19.62,19.62,0,0,1,39.05,6.3a5,5,0,0,1,.4.58c.31.38.64.74,1,1.11.7.78,1.44,1.52,2.09,2.34a10.62,10.62,0,0,1,.67,1.4,18.54,18.54,0,0,1,2.28,8.35c.08,1.88,0,3.77-.08,5.66A9.1,9.1,0,0,1,45,27.41a12.08,12.08,0,0,1-2.72,5.41c-1.1,1.24-2.07,2.6-3.18,3.82a11,11,0,0,1-2,1.58,29.94,29.94,0,0,1-3.12,2,26.91,26.91,0,0,1-3.08,1.27,4.84,4.84,0,0,1-2.26.37,1.29,1.29,0,0,0-1.38.89c-.14.32-.28.65-.43,1a.54.54,0,0,1-.61.35,8.81,8.81,0,0,0-1.85.06,28.57,28.57,0,0,1-5.47,0,.75.75,0,0,1-.48-.37c-.37-.64-.71-1.3-1-2a1.08,1.08,0,0,0-1-.59,18.46,18.46,0,0,1-3.06-.63,13.39,13.39,0,0,1-2.58-1.26,24,24,0,0,1-2.9-2A38,38,0,0,1,5,34.48,10.51,10.51,0,0,1,3.86,33c-.14-.21-.09-.52-.18-.77a9.14,9.14,0,0,0-.5-1.17c-.33-.64-.74-1.25-1.05-1.91-.45-.95-.77-2-1.27-2.88A8.57,8.57,0,0,1,0,22.46,17.32,17.32,0,0,1,.24,19.6c.14-1.17.31-2.33.48-3.49a3.21,3.21,0,0,1,.15-.53A23.63,23.63,0,0,1,4.59,9C5.33,8,6,6.9,6.8,5.9a4.9,4.9,0,0,1,1.26-1,19.19,19.19,0,0,1,2.46-1.37c1.19-.51,2.42-.92,3.64-1.36.34-.13.7-.23,1.06-.33C16.66,1.41,18.1,1,19.55.64A6,6,0,0,1,20.7.54Z"/><path d="M20,29.84c-.55-.07-1-.09-1.48-.19s-.75,0-.74.58c0,1.16,0,2.32,0,3.47,0,1.38,0,2.75.08,4.12a.87.87,0,0,0,.47.9c.08,0,.11.2.15.31.23.62.53.73,1.15.48a.86.86,0,0,1,.63,0,.69.69,0,0,0,.93-.12A1.63,1.63,0,0,0,21.64,38a26.56,26.56,0,0,1-.17-3c0-1.12.08-2.24.12-3.36.7,0,1.27.06,1.83.12.07,0,.17.2.17.31,0,1,0,2.11,0,3.16,0,.78.18,1.56.26,2.34a7.38,7.38,0,0,1,0,1c0,.23-.06.45-.06.68,0,.06.16.16.24.16a10,10,0,0,0,1.09-.06,6.13,6.13,0,0,1,1.27-.12,1.76,1.76,0,0,0,2.06-1.92c-.29-1.94-.56-3.89-.92-5.82a16.31,16.31,0,0,0-.74-2.24.17.17,0,0,0-.08-.12c-.62-.4-.32-1-.35-1.59.66,0,1.25-.31,1.95,0a3,3,0,0,0,1.55,0,30.39,30.39,0,0,0,8.61-2.44,14.46,14.46,0,0,0,3.65-2.46,2,2,0,0,1,.6-.24c.07.2.22.41.2.6-.13,1-.31,2.08-.45,3.12a14.16,14.16,0,0,1-2,4.7,7.71,7.71,0,0,1-.87,1.57c-1,1.11-2.15,2.13-3.24,3.19-.19.19-.37.41-.57.6a12.68,12.68,0,0,1-1.06.88,20,20,0,0,1-3,1.94,28.74,28.74,0,0,1-5.08,1.74,21.06,21.06,0,0,1-4.29.28,7.64,7.64,0,0,1-2.34-.24,31.29,31.29,0,0,1-4.34-1.49,44.61,44.61,0,0,1-5.14-2.66,14,14,0,0,1-5-5,22.82,22.82,0,0,1-2.45-5.45c-.29-1.09-.42-2.24-.61-3.36a.5.5,0,0,1,.17-.39c.06,0,.27,0,.36.11a19.54,19.54,0,0,0,8.19,3.93q2.52.63,5.09,1a22.35,22.35,0,0,0,2.59,0c.93,0,.93.07,1,1C19.9,29,19.94,29.34,20,29.84ZM34,34.7c-.11-.82-.2-1.54-.32-2.26-.19-1.09-.38-2.18-.61-3.26a.88.88,0,0,0-1-.65c-.62.09-1.25.19-1.87.31a2.55,2.55,0,0,0-.87.29.9.9,0,0,0-.4.61A21.79,21.79,0,0,0,29.27,32c.34,1.84.71,3.67,1.05,5.51.1.56.44.71.93.36a11.57,11.57,0,0,1,1.08-.8,4.42,4.42,0,0,0,1.46-1.7A1.82,1.82,0,0,0,34,34.7Zm-21.54.19c.06.42.15.86.18,1.31a1.37,1.37,0,0,0,1.12,1.34,13.34,13.34,0,0,1,1.63.62.54.54,0,0,0,.76-.21,1.38,1.38,0,0,0,.29-1.08,6.51,6.51,0,0,1-.18-1.24c-.07-1.85-.16-3.7-.16-5.56,0-.92-.35-1.27-1.26-1.06a2.17,2.17,0,0,1-2.07-.25.51.51,0,0,0-.84.44c0,.23,0,.47.06.7C12,31.56,12.68,33.17,12.43,34.89Zm-1.82,1A1.28,1.28,0,0,0,11,34.52c-.06-.62-.31-1.23-.35-1.85-.09-1.27-.09-2.56-.11-3.84a.86.86,0,0,0-.35-.85c-.8-.48-1.61-.95-2.42-1.4a.51.51,0,0,0-.47,0,3.15,3.15,0,0,0-.46.72s0,.08.06.11.17.2.17.29c0,.4,0,.8-.07,1.2a3.45,3.45,0,0,0,0,.85c.08.46.27.92.32,1.38.08.75.08,1.51.13,2.26a2.54,2.54,0,0,0,.17.46l.09-.16c.2,0,.46-.09.58,0a4.42,4.42,0,0,1,.82.91c.34.53.72.84,1.38.56ZM38.33,31.6l-.08-.05c0-.17-.06-.34-.1-.5-.18-.64-.38-1.27-.53-1.92s-.33-1.53-.5-2.3c-.07-.35-.23-.7-.67-.58a1.26,1.26,0,0,0-1,.73.9.9,0,0,1-.34.36c-.72.46-.69.47-.56,1.31.28,1.75.5,3.51.74,5.27,0,.25-.06.61.29.63a1.17,1.17,0,0,0,.79-.23,4.14,4.14,0,0,0,1-1A19.38,19.38,0,0,0,38.33,31.6ZM38.79,27l-.16,0,.54,2c.07.25.1.51.18.76s.16.49.25.5.52-.1.59-.25a8.7,8.7,0,0,0,1.11-2.42c.05-.35.23-.67.28-1a3.48,3.48,0,0,0-.07-.78,1.5,1.5,0,0,1-.09-.46c.06-.52-.49-1-.94-.77a12.59,12.59,0,0,0-1.63,1.1.56.56,0,0,0-.14.42A8.91,8.91,0,0,0,38.79,27Zm-32.46.66h0c0-.19,0-.37,0-.55a2.42,2.42,0,0,0-.72-1.75,9.58,9.58,0,0,0-1.06-.95c-.12-.1-.33-.26-.4-.22a.76.76,0,0,0-.28.43.91.91,0,0,0,.06.45,7.92,7.92,0,0,1,.47,1.53A16.7,16.7,0,0,0,5.53,30,5.32,5.32,0,0,0,6,31a2.51,2.51,0,0,0,.33.32,1.2,1.2,0,0,0,.18-.47c0-.36-.18-.72-.2-1.08C6.31,29.09,6.33,28.38,6.33,27.68Z"/><path class="cls-1" d="M31,18.27c.35-.17.93-.07.71-.64l-1.53.47c-.18,0-.41.07-.3.39,0,.06-.18.2-.34.37l-.05-.6c-.84.12-1.68.23-2.51.37-.56.09-.75-.05-.66-.59.21-1.24.34-2.49.65-3.7.5-1.86,1.08-3.7,1.7-5.52.35-1,.87-2,1.3-2.95.14-.29.32-.31.6-.2A24.28,24.28,0,0,1,36,8.54a20,20,0,0,1,3,2.71,15.72,15.72,0,0,1,1.5,2.09,18.55,18.55,0,0,1,1.23,1.85,23.46,23.46,0,0,1,1,2.49c.13.35.23.7.36,1.13C39.1,18.1,35.07,18.37,31,18.27Z"/><path class="cls-1" d="M15.39,5.77c.49.79.87,1.52,1.35,2.16a12.2,12.2,0,0,1,2.37,6.49c.09,1.23.29,2.45.44,3.67,0,.09,0,.18,0,.35-.43-.08-.82-.17-1.22-.21a11.13,11.13,0,0,0-1.29-.05L12,18.37c-.63,0-1.25,0-1.88,0l-4.83.08c-.6,0-1.19,0-1.79,0s-.68-.29-.48-.73c.3-.64.6-1.28.94-1.9.5-.9,1-1.81,1.58-2.66a22.29,22.29,0,0,1,2.15-2.77A9.35,9.35,0,0,1,9.54,9.14c.91-.58,1.82-1.17,2.75-1.74a1.43,1.43,0,0,1,.65-.24,1.16,1.16,0,0,0,1.19-.76.38.38,0,0,1,.21-.22C14.72,6,15.11,5.87,15.39,5.77Z"/><path class="cls-1" d="M23.28,31.17c-.74-.19-1.48-.37-2.22-.59-.09,0-.18-.2-.19-.31,0-1,0-1.92-.05-2.87-.07-1.63-.18-3.26-.25-4.89-.05-1.46-.11-2.93-.1-4.39,0-1.65.1-3.3.16-5,0-1.27.05-2.54.13-3.8.11-1.77.26-3.54.42-5.31.11-1.25.27-2.49.42-3.73A.49.49,0,0,1,21.89,0c.65,0,1.3,0,1.95,0a.34.34,0,0,1,.26.2c.15,1,.32,2,.42,3.06s.09,1.82.14,2.73c0,.51.08,1,.11,1.52.08,1.43.16,2.86.23,4.29.1,2.09.18,4.18.28,6.27.07,1.62.17,3.23.23,4.84,0,.83,0,1.66,0,2.49,0,1.35.07,2.7.09,4.05a2.46,2.46,0,0,1-.07.91,1,1,0,0,1-.59.49,15,15,0,0,1-1.66.19ZM22.7,2.23,23.76.75,23.25.68l-.19.42-.42,0,.07.49-.5,0Z"/><path class="cls-1" d="M26.79,22.15c1-.09,1.94-.26,2.9-.26,1.67,0,3.34.1,5,.18.87.05,1.74.21,2.62.23,1.09,0,2.19,0,3.29-.07l.46,0A9.32,9.32,0,0,1,38,24.27c-2,.6-4.06,1.3-6.1,1.92-.95.28-1.93.45-2.9.67a.46.46,0,0,1-.59-.28,14,14,0,0,1-1.49-3.39C26.87,22.88,26.84,22.56,26.79,22.15Z"/><path d="M10.34,19.32a1.58,1.58,0,0,0-.5,1.28c.06.51.42.77.67,1.16-.07,0-.18.13-.23.11-.34-.17-.68,0-1,0-.93,0-1.85-.16-2.78-.25A22.16,22.16,0,0,1,4,21.27a2.46,2.46,0,0,1-1-.69,3.6,3.6,0,0,1-.54-.74.59.59,0,0,1-.1-.41c0-.1.23-.17.36-.19A17.62,17.62,0,0,1,4.59,19c.52,0,1,.09,1.56.11Z"/><path d="M35.36,21.37a1.66,1.66,0,0,0-.12-2.2l8.09.26a6.38,6.38,0,0,1-.38.67,14.5,14.5,0,0,1-.87,1.19.56.56,0,0,1-.4.14c-.29,0-.58-.08-.87-.1-.52,0-1-.08-1.56-.07-1.18,0-2.36.08-3.53.13Z"/><path d="M33.42,19.09c-.7.51-.77,1.33-.22,2.26-.58,0-1.1-.07-1.63-.08-.76,0-1.53,0-2.3,0-.25,0-.51-.11-.77-.12-.43,0-.86,0-1.29,0s-.62-.08-.68-.42a13.24,13.24,0,0,1-.1-1.47A11.25,11.25,0,0,0,30,19.23c.76,0,1.53,0,2.3-.07Z"/><path class="cls-1" d="M18.76,26.55l.88-1.81h.06v1.81Z"/><path class="cls-1" d="M26.54,25.59l.51.89-.58,0v-.9Z"/><path class="cls-1" d="M19.06,22.08a.82.82,0,0,1-.51.28c-1.87.08-3.73.18-5.6.17-2.21,0-4.42-.13-6.64-.21-.54,0-1.08-.06-1.76-.1.18.22.26.37.38.43.33.19.7.31,1,.52A12.82,12.82,0,0,0,9.62,25c1.26.33,2.47.81,3.72,1.15a24.83,24.83,0,0,0,2.73.53,1.34,1.34,0,0,0,1.58-.74c.33-.67.75-1.31,1.09-2A9.39,9.39,0,0,0,19.45,22,1.29,1.29,0,0,0,19.06,22.08Z"/><path d="M12.23,21.53a.69.69,0,0,0,.92.21,2.56,2.56,0,0,1,.69-.08c1.12-.15,2.27.32,3.37-.18a.39.39,0,0,1,.23,0,1,1,0,0,0,.83,0c.2-.09.52.06.77.17l.55-.42a5.47,5.47,0,0,0,0-1.51c0-.21,0-.44,0-.65s0-.23,0-.35a2.68,2.68,0,0,1-.65.25c-.77.06-1.53.08-2.3.11l-4.29.12c.18.41.36.79.51,1.18C12.91,20.61,12.52,21.34,12.23,21.53Z"/><path d="M52.64,9.21h2.23c3,0,4.4,1.88,4.4,4.8s-1.41,4.86-4.38,4.86H52.64Zm2.17,9.09c2.61,0,3.75-1.77,3.75-4.29s-1.14-4.23-3.75-4.23h-1.5V18.3Z"/><path d="M60.83,15.37c0-2.36,1.47-3.71,3.16-3.71s3.16,1.35,3.16,3.71S65.68,19.05,64,19.05,60.83,17.69,60.83,15.37Zm5.64,0c0-1.86-1.06-3.14-2.48-3.14s-2.48,1.28-2.48,3.14,1.06,3.11,2.48,3.11S66.47,17.22,66.47,15.37Z"/><path d="M69.26,11.83h.55l.07,1.09h0a3.28,3.28,0,0,1,2.23-1.26,1.81,1.81,0,0,1,1.94,1.43,3.5,3.5,0,0,1,2.39-1.43c1.41,0,2.11.88,2.11,2.7v4.51h-.65V14.44c0-1.49-.5-2.2-1.58-2.2a3.07,3.07,0,0,0-2.11,1.32v5.31H73.6V14.44c0-1.49-.5-2.2-1.58-2.2a3.11,3.11,0,0,0-2.11,1.32v5.31h-.65Z"/><path d="M80.92,9.56a.59.59,0,0,1,1.18,0,.59.59,0,0,1-1.18,0Zm.25,2.27h.65v7h-.65Z"/><path d="M84.52,11.83h.55l.07,1.09h0a3.47,3.47,0,0,1,2.43-1.26c1.45,0,2.12.88,2.12,2.7v4.51h-.64V14.44c0-1.49-.48-2.2-1.61-2.2-.84,0-1.44.44-2.3,1.32v5.31h-.65Z"/><path d="M92.06,9.56a.59.59,0,0,1,1.18,0,.59.59,0,0,1-1.18,0Zm.26,2.27H93v7h-.64Z"/><path d="M95.07,15.37c0-2.36,1.51-3.71,3.22-3.71a2.9,2.9,0,0,1,2.06.86L100,13a2.4,2.4,0,0,0-1.66-.74c-1.44,0-2.56,1.28-2.56,3.14s1,3.11,2.55,3.11a2.79,2.79,0,0,0,1.88-.82l.34.46a3.35,3.35,0,0,1-2.25.93C96.45,19.05,95.07,17.69,95.07,15.37Z"/><path d="M105.25,9.21h.67v9.08h4.45v.58h-5.12Z"/><path d="M111.28,15.37c0-2.3,1.49-3.71,3.07-3.71s2.7,1.18,2.7,3.25a3.08,3.08,0,0,1,0,.53H112c0,1.78,1.06,3,2.65,3a3.13,3.13,0,0,0,1.89-.63l.27.5a3.92,3.92,0,0,1-2.22.69C112.74,19.05,111.28,17.67,111.28,15.37Zm5.16-.46c0-1.8-.82-2.69-2.08-2.69a2.63,2.63,0,0,0-2.42,2.69Z"/><path d="M118.23,17.12c0-1.56,1.41-2.31,4.54-2.65,0-1.09-.27-2.25-1.66-2.25a3.83,3.83,0,0,0-2.24.83l-.3-.48a4.73,4.73,0,0,1,2.62-.91c1.67,0,2.23,1.21,2.23,2.71v4.5h-.55L122.8,18h0a4.17,4.17,0,0,1-2.5,1.09A1.85,1.85,0,0,1,118.23,17.12Zm4.54.23V15c-2.89.33-3.88,1-3.88,2.13a1.32,1.32,0,0,0,1.49,1.4A3.67,3.67,0,0,0,122.77,17.35Z"/><path d="M125.93,16.93V12.4h-1.1v-.51l1.12-.06.08-2h.55v2h2v.57h-2V17c0,.9.23,1.5,1.2,1.5a2.53,2.53,0,0,0,.88-.22l.17.52a3.91,3.91,0,0,1-1.15.27C126.33,19.05,125.93,18.19,125.93,16.93Z"/><path d="M130.34,8.32H131v4.62a3.46,3.46,0,0,1,2.43-1.28c1.46,0,2.13.88,2.13,2.7v4.51h-.65V14.44c0-1.49-.47-2.2-1.6-2.2-.84,0-1.44.44-2.3,1.32v5.31h-.65Z"/><path d="M137.58,17.12c0-1.56,1.41-2.31,4.54-2.65,0-1.09-.28-2.25-1.66-2.25a3.83,3.83,0,0,0-2.24.83l-.3-.48a4.73,4.73,0,0,1,2.62-.91c1.66,0,2.23,1.21,2.23,2.71v4.5h-.55l-.07-.91h0a4.17,4.17,0,0,1-2.5,1.09A1.84,1.84,0,0,1,137.58,17.12Zm4.54.23V15c-2.89.33-3.88,1-3.88,2.13a1.32,1.32,0,0,0,1.49,1.4A3.67,3.67,0,0,0,142.12,17.35Z"/><path d="M145.28,11.83h.55l.07,1.09h0a3.28,3.28,0,0,1,2.23-1.26,1.81,1.81,0,0,1,1.94,1.43,3.5,3.5,0,0,1,2.39-1.43c1.4,0,2.11.88,2.11,2.7v4.51H154V14.44c0-1.49-.5-2.2-1.58-2.2a3.07,3.07,0,0,0-2.11,1.32v5.31h-.65V14.44c0-1.49-.49-2.2-1.57-2.2a3.09,3.09,0,0,0-2.11,1.32v5.31h-.65Z"/><path class="cls-1" d="M54.6,26.15h2l3.13,9.59h-1.8l-1.46-5.1c-.31-1-.59-2.11-.87-3.16h-.06c-.27,1.06-.55,2.14-.85,3.16l-1.47,5.1H51.47Zm-1.28,5.66h4.51v1.33H53.32Z"/><path class="cls-1" d="M64.86,26.15h1.75l3,5.39,1,2.05h.06c-.08-1-.22-2.21-.22-3.27V26.15H72v9.59H70.3l-3-5.4-1-2h0c.08,1,.21,2.17.21,3.23v4.2H64.86Z"/><path class="cls-1" d="M78.53,26.15h1.7v9.59h-1.7Z"/><path class="cls-1" d="M86.71,26.15h1.93l1.69,4.69c.22.61.41,1.25.62,1.88H91c.21-.63.39-1.27.6-1.88l1.66-4.69H95.2v9.59H93.64V31.36c0-.89.13-2.17.21-3.05h-.06L93,30.53l-1.58,4.31h-1l-1.58-4.31-.76-2.22H88c.08.88.22,2.16.22,3.05v4.38H86.71Z"/><path class="cls-1" d="M103.56,26.15h2l3.13,9.59h-1.8l-1.46-5.1c-.31-1-.59-2.11-.87-3.16h-.06c-.26,1.06-.55,2.14-.85,3.16l-1.47,5.1h-1.74Zm-1.28,5.66h4.52v1.33h-4.52Z"/><path class="cls-1" d="M114.91,27.58h-2.77V26.15h7.24v1.43h-2.77v8.16h-1.7Z"/><path class="cls-1" d="M125,26.15h1.7v9.59H125Z"/><path class="cls-1" d="M132.71,30.91c0-3.1,1.73-4.93,4.23-4.93s4.23,1.84,4.23,4.93-1.73,5-4.23,5S132.71,34,132.71,30.91Zm6.71,0c0-2.15-1-3.46-2.48-3.46s-2.48,1.31-2.48,3.46,1,3.53,2.48,3.53S139.42,33.06,139.42,30.91Z"/><path class="cls-1" d="M147.15,26.15h1.75l3,5.39,1,2.05h.06c-.08-1-.22-2.21-.22-3.27V26.15h1.62v9.59h-1.75l-3-5.4-1-2h-.06c.08,1,.22,2.17.22,3.23v4.2h-1.62Z"/></g></g></svg>